<svg width="76" height="76" viewBox="0 0 76 76" fill="none" xmlns="http://www.w3.org/2000/svg">
<g clip-path="url(#clip0_302_69)">
<mask id="mask0_302_69" style="mask-type:luminance" maskUnits="userSpaceOnUse" x="0" y="0" width="76" height="76">
<path d="M0.5 0.5H75.5V75.5H0.5V0.5Z" fill="white"/>
</mask>
<g mask="url(#mask0_302_69)">
<path fill-rule="evenodd" clip-rule="evenodd" d="M75.5 0.5H0.5V75.5H75.5V0.5ZM45.8125 19.25C45.8124 18.632 45.629 18.028 45.2856 17.5142C44.9422 17.0004 44.4542 16.6 43.8833 16.3635C43.3124 16.127 42.6841 16.0652 42.078 16.1857C41.4719 16.3062 40.9152 16.6037 40.4781 17.0406L32.6656 24.8531C32.3672 25.1414 32.1291 25.4862 31.9653 25.8675C31.8015 26.2487 31.7153 26.6588 31.7117 27.0737C31.7081 27.4887 31.7872 27.9002 31.9443 28.2842C32.1014 28.6683 32.3335 29.0172 32.6269 29.3106C32.9203 29.604 33.2692 29.8361 33.6533 29.9932C34.0373 30.1503 34.4488 30.2294 34.8638 30.2258C35.2787 30.2222 35.6888 30.136 36.07 29.9722C36.4513 29.8084 36.7961 29.5703 37.0844 29.2719L39.5625 26.7937V56.75C39.5625 57.5788 39.8917 58.3737 40.4778 58.9597C41.0638 59.5458 41.8587 59.875 42.6875 59.875C43.5163 59.875 44.3112 59.5458 44.8972 58.9597C45.4833 58.3737 45.8125 57.5788 45.8125 56.75V19.25Z" fill="white"/>
</g>
</g>
<defs>
<clipPath id="clip0_302_69">
<rect x="0.5" y="0.5" width="75" height="75" rx="37.5" fill="white"/>
</clipPath>
</defs>
</svg>
