<svg width="76" height="77" viewBox="0 0 76 77" fill="none" xmlns="http://www.w3.org/2000/svg">
<g clip-path="url(#clip0_302_57)">
<mask id="mask0_302_57" style="mask-type:luminance" maskUnits="userSpaceOnUse" x="0" y="1" width="76" height="75">
<path d="M0.5 1H75.5V76H0.5V1Z" fill="white"/>
</mask>
<g mask="url(#mask0_302_57)">
<path fill-rule="evenodd" clip-rule="evenodd" d="M75.5 1H0.5V76H75.5V1ZM47.375 29.125C47.375 27.4674 46.7165 25.8777 45.5444 24.7056C44.3723 23.5335 42.7826 22.875 41.125 22.875H34.875C33.5823 22.8748 32.3213 23.2753 31.2656 24.0212C30.2098 24.7672 29.4112 25.8221 28.9797 27.0406C28.6929 27.8077 28.1164 28.4315 27.3744 28.7779C26.6323 29.1243 25.784 29.1655 25.0118 28.8928C24.2396 28.62 23.6054 28.0551 23.2455 27.3195C22.8856 26.5839 22.8289 25.7364 23.0875 24.9594C23.9497 22.5221 25.5461 20.4119 27.6571 18.9194C29.768 17.4268 32.2897 16.6253 34.875 16.625H41.125C43.651 16.6251 46.1177 17.3905 48.2 18.8203C50.2824 20.2501 51.8827 22.2772 52.7901 24.6346C53.6975 26.9919 53.8695 29.5689 53.2833 32.0259C52.697 34.4829 51.3802 36.7047 49.5063 38.3984L33.2313 54.125H50.5C51.3288 54.125 52.1237 54.4542 52.7097 55.0403C53.2958 55.6263 53.625 56.4212 53.625 57.25C53.625 58.0788 53.2958 58.8737 52.7097 59.4597C52.1237 60.0458 51.3288 60.375 50.5 60.375H25.5C24.8774 60.375 24.269 60.189 23.7529 59.8409C23.2367 59.4929 22.8362 58.9985 22.6029 58.4213C22.3695 57.8442 22.3139 57.2104 22.4431 56.6014C22.5723 55.9924 22.8805 55.4358 23.3281 55.0031L45.2031 33.8656L45.2906 33.7844C45.9475 33.1991 46.4729 32.4812 46.8322 31.6781C47.1915 30.875 47.3765 30.0048 47.375 29.125Z" fill="white"/>
</g>
</g>
<defs>
<clipPath id="clip0_302_57">
<rect x="0.5" y="0.5" width="75" height="76" rx="37.5" fill="white"/>
</clipPath>
</defs>
</svg>
