<svg width="76" height="75" viewBox="0 0 76 75" fill="none" xmlns="http://www.w3.org/2000/svg">
<g clip-path="url(#clip0_302_84)">
<mask id="mask0_302_84" style="mask-type:luminance" maskUnits="userSpaceOnUse" x="0" y="0" width="76" height="75">
<path d="M0.5 0H75.5V75H0.5V0Z" fill="white"/>
</mask>
<g mask="url(#mask0_302_84)">
<path fill-rule="evenodd" clip-rule="evenodd" d="M75.5 0H0.5V75H75.5V0ZM47.375 28.125C47.375 24.7359 44.55 21.875 40.9219 21.875H34.5344C31.6859 21.875 29.3094 23.6516 28.4406 26.0625C28.1588 26.8422 27.5788 27.478 26.8283 27.8301C26.0777 28.1822 25.218 28.2216 24.4383 27.9398C23.6586 27.6581 23.0228 27.0781 22.6707 26.3275C22.3186 25.5769 22.2791 24.7172 22.5609 23.9375C24.3203 19.0656 29.0406 15.625 34.5344 15.625H40.9203C47.875 15.625 53.625 21.1578 53.625 28.125C53.6255 29.9053 53.2414 31.6646 52.499 33.2827C51.7565 34.9008 50.6733 36.3393 49.3234 37.5C50.6733 38.6607 51.7565 40.0992 52.499 41.7173C53.2414 43.3354 53.6255 45.0947 53.625 46.875C53.625 53.8422 47.8734 59.375 40.9219 59.375H34.5344C29.0406 59.375 24.3203 55.9344 22.5609 51.0625C22.4214 50.6765 22.3593 50.2669 22.3781 49.8569C22.3969 49.4469 22.4962 49.0446 22.6705 48.6731C22.8447 48.3015 23.0905 47.9679 23.3936 47.6913C23.6968 47.4146 24.0515 47.2005 24.4375 47.0609C25.217 46.7791 26.0765 46.8185 26.8269 47.1705C27.1985 47.3447 27.5321 47.5905 27.8087 47.8936C28.0853 48.1968 28.2995 48.5515 28.4391 48.9375C29.3094 51.3484 31.6859 53.125 34.5344 53.125H40.9203C44.55 53.125 47.375 50.2641 47.375 46.875C47.375 43.4859 44.55 40.625 40.9219 40.625H34.5344C33.7056 40.625 32.9107 40.2958 32.3247 39.7097C31.7386 39.1237 31.4094 38.3288 31.4094 37.5C31.4094 36.6712 31.7386 35.8763 32.3247 35.2903C32.9107 34.7042 33.7056 34.375 34.5344 34.375H40.9203C44.55 34.375 47.375 31.5141 47.375 28.125Z" fill="white"/>
</g>
</g>
<defs>
<clipPath id="clip0_302_84">
<rect x="0.5" width="75" height="75" rx="37.5" fill="white"/>
</clipPath>
</defs>
</svg>
