<svg width="75" height="75" viewBox="0 0 75 75" fill="none" xmlns="http://www.w3.org/2000/svg">
<g clip-path="url(#clip0_302_43)">
<mask id="mask0_302_43" style="mask-type:luminance" maskUnits="userSpaceOnUse" x="0" y="0" width="75" height="75">
<path d="M0 0H75V75H0V0Z" fill="white"/>
</mask>
<g mask="url(#mask0_302_43)">
<path d="M40.625 29.0718V43.7499H30.8391L40.625 29.0718Z" fill="white"/>
<path fill-rule="evenodd" clip-rule="evenodd" d="M75 0H0V75H75V0ZM46.875 18.75C46.8751 18.0793 46.6595 17.4263 46.2599 16.8876C45.8603 16.3488 45.298 15.953 44.656 15.7585C44.0141 15.5641 43.3267 15.5813 42.6953 15.8077C42.0639 16.034 41.5221 16.4576 41.15 17.0156L22.4 45.1406C22.086 45.6113 21.9057 46.1583 21.8782 46.7234C21.8508 47.2885 21.9772 47.8504 22.2441 48.3493C22.511 48.8481 22.9084 49.2651 23.3937 49.5559C23.8791 49.8466 24.4342 50.0001 25 50H40.625V56.25C40.625 57.0788 40.9542 57.8737 41.5403 58.4597C42.1263 59.0458 42.9212 59.375 43.75 59.375C44.5788 59.375 45.3737 59.0458 45.9597 58.4597C46.5458 57.8737 46.875 57.0788 46.875 56.25V50H50C50.8288 50 51.6237 49.6708 52.2097 49.0847C52.7958 48.4987 53.125 47.7038 53.125 46.875C53.125 46.0462 52.7958 45.2513 52.2097 44.6653C51.6237 44.0792 50.8288 43.75 50 43.75H46.875V18.75Z" fill="white"/>
</g>
</g>
<defs>
<clipPath id="clip0_302_43">
<rect width="75" height="75" rx="37.5" fill="white"/>
</clipPath>
</defs>
</svg>
