<svg width="76" height="76" viewBox="0 0 76 76" fill="none" xmlns="http://www.w3.org/2000/svg">
<g clip-path="url(#clip0_128_176)">
<path d="M34.9238 0.719719C32.5947 1.20312 29.1084 2.60937 28.3027 3.38573C28.083 3.60546 27.8193 4.00097 27.7314 4.27929C27.6436 4.55761 27.3066 5.11425 27.0137 5.52441C25.7978 7.12109 25.0361 9.14257 24.5234 12.1309C24.2012 14.0205 23.9814 14.6504 23.4102 15.3975C22.3701 16.7598 22.2236 17.9902 22.9121 19.4404C23.1904 20.041 23.3516 20.6123 23.3516 21.0225C23.3662 22.0186 23.6152 23.5713 23.9228 24.4355C24.5674 26.2812 25.6074 27.2041 27.7461 27.834C28.4346 28.0391 29.0937 28.2588 29.2109 28.3174C29.5332 28.4785 29.9287 30.1338 29.9287 31.3496L29.9434 32.3896L28.9619 32.5654C26.2666 33.0635 23.4248 34.2793 22.2676 35.4219C21.1689 36.5205 19.543 39.7139 17.4629 44.8848C16.8623 46.3789 16.2031 47.917 15.998 48.3125L15.6318 49.0303L15.4707 47.7266C15.3828 47.0088 15.2656 45.998 15.207 45.4707L15.1191 44.5039L16.1592 43.6543C17.917 42.2334 19.2207 40.4756 20.2168 38.1611C21.2275 35.832 21.0371 34.001 19.6309 32.4775L18.8545 31.6279L19.1182 30.1338C19.4697 28.1855 19.8213 25.0654 19.8652 23.4834C19.9092 22.4287 19.8652 22.165 19.6455 21.916C19.3672 21.6084 17.8437 21.125 16.2471 20.832C13.9912 20.4365 9.3916 20.7148 8.67383 21.2861C8.27832 21.6084 8.19043 22.2529 7.95605 25.9443C7.79492 28.5371 7.73633 28.918 7.5166 28.9912C7.17969 29.0937 5.31934 31.335 4.41113 32.7266C4.01562 33.3271 3.42969 34.3818 3.09277 35.0703C2.56543 36.1543 2.49219 36.4473 2.49219 37.2822C2.49219 38.1611 2.56543 38.3955 3.20996 39.626C3.60547 40.3877 4.19141 41.5303 4.52832 42.1602L5.11426 43.3174L5.2168 46.6279C5.27539 48.4443 5.39258 50.9199 5.48047 52.1357C5.93457 58.1855 7.45801 66.2568 8.51269 68.2197C9.08398 69.2598 10.3877 70.5342 11.457 71.0615C13.4199 72.043 15.4121 72.043 17.4336 71.0322C19.5283 70.0068 20.7148 68.4834 20.7734 66.7842C20.7881 66.125 20.9053 65.876 21.6816 64.7187C22.1797 64.001 22.7949 63.0342 23.0586 62.5654L23.5273 61.7305L24.0254 62.7705C24.3037 63.3564 24.8896 64.3672 25.3291 65.041C26.8525 67.3848 26.9697 67.8975 26.6475 70.71C26.5303 71.75 26.4277 72.8779 26.4277 73.2148C26.4277 73.9766 26.8232 74.7383 27.4531 75.1777L27.9365 75.5H46.335C64.3086 75.5 64.748 75.4854 65.2021 75.207C65.7295 74.8848 66.081 74.416 66.2715 73.7715C66.4033 73.2881 66.0371 68.9814 64.9531 58.1416C64.0596 49.3086 63.5908 46.4961 62.5068 43.3613C61.9648 41.7793 60.8223 39.2598 60.1338 38.1611C59.9141 37.7803 59.6357 37.1211 59.5332 36.6816C59.2402 35.4219 58.8008 34.5576 57.4531 32.5801C55.5488 29.7822 55.124 28.8008 54.626 25.915C54.4062 24.7139 54.3623 23.6738 54.3769 20.0557C54.4062 14.0352 54.1719 11.5156 53.3516 8.99609C51.9893 4.82128 48.8984 1.93554 44.5918 0.851555C43.2734 0.514641 36.3154 0.412102 34.9238 0.719719ZM43.1269 3.16601C45.2217 3.45898 46.7744 4.1914 48.3271 5.65624C50.0264 7.23827 51.0078 9.21581 51.5644 12.1455C51.7549 13.2148 51.8135 14.5478 51.8428 19.0303C51.9014 25.3437 52.0478 26.8232 52.8828 29.3574C53.4101 30.9687 54.0693 32.1699 55.6514 34.4697C56.8525 36.2129 57.2334 37.1943 57.1601 38.3369C57.0869 39.3916 56.8232 39.7578 55.417 40.7393C53.9375 41.7939 53.3662 42.3506 51.8721 44.2256C50.0264 46.54 49.0742 47.2285 47.7705 47.2285C46.584 47.2285 45.7344 46.2764 44.3281 43.4199C43.6543 42.0283 43.332 41.5596 42.4678 40.6953C41.3838 39.6113 41.0762 39.4502 38.6006 38.7324C36.4033 38.0879 36.1689 37.209 37.3994 34.1475C38.8057 30.6611 39.2305 28.2588 39.1572 24.1426L39.0986 21.4766L39.5674 21.3154C40.168 21.0957 41.0908 20.1875 41.4424 19.4697C41.8232 18.6494 41.8818 17.5508 41.6035 16.54C41.1201 14.9141 39.3477 13.6982 37.6924 13.8594C37.3408 13.8887 37.1211 13.8447 37.1211 13.7422C37.1211 13.3467 36.3008 12.0723 35.5391 11.2959C35.085 10.8271 34.0156 9.97753 33.1807 9.40624C30.6758 7.69238 30.0019 6.81347 30.0752 5.37792C30.0898 5.1289 30.3828 4.93847 31.6865 4.39648C33.5762 3.59081 35.1436 3.16601 36.7549 3.00488C38.1318 2.85839 41.5596 2.94628 43.1269 3.16601ZM29.709 9.97753C30.0898 10.3144 30.998 11.0029 31.7305 11.501C34.2061 13.2002 34.8213 13.9766 34.8506 15.4853C34.8652 16.2471 34.9238 16.4082 35.2754 16.7158C35.7588 17.126 36.374 17.1553 36.8574 16.7744C37.3555 16.3789 37.9268 16.2617 38.4102 16.4521C38.8789 16.6572 39.3184 17.3018 39.3184 17.8144C39.3184 18.5615 38.4541 19.25 37.5166 19.25C37.1797 19.25 36.916 19.3672 36.6816 19.6162C36.3301 19.9824 36.3301 19.9971 36.5059 21.5644C36.8574 24.7432 36.667 28.1123 35.9932 30.6025C35.8613 31.0859 35.4219 32.3018 35.0264 33.3125C34.3818 34.8945 34.2793 35.3047 34.2207 36.4033C34.1182 38.5713 34.7334 39.7871 36.4326 40.6367L37.3408 41.1055L36.1543 41.0176C34.001 40.8564 32.4922 40.124 31.042 38.5566C30.2803 37.7363 28.918 35.6416 28.918 35.2754C28.918 35.1875 29.5186 35.0117 30.251 34.8799C31.8623 34.5869 32.2432 34.3672 32.375 33.6641C32.4775 33.0781 32.3603 29.4453 32.2139 28.9766C32.126 28.6836 32.1699 28.6689 33.5908 28.5957C34.8945 28.5371 35.1289 28.4785 35.4365 28.1855C35.8906 27.7607 35.9346 26.9111 35.5244 26.4131C35.2607 26.0762 35.1875 26.0615 33.3711 26.1055C30.6465 26.1787 27.8633 25.5342 26.9111 24.6406C26.3691 24.1426 25.9883 22.8828 25.8564 21.1543C25.7539 19.9385 25.6367 19.3672 25.3437 18.7373C25.1387 18.2686 24.9629 17.8437 24.9629 17.7705C24.9629 17.6973 25.2266 17.2432 25.5488 16.7451C26.3398 15.5293 26.6621 14.5918 27.0137 12.5557C27.1748 11.5889 27.4678 10.3584 27.6582 9.80175C28.2295 8.11718 28.1709 8.19042 28.625 8.8203C28.8447 9.12792 29.3281 9.64062 29.709 9.97753ZM16.3643 23.4102C16.833 23.5127 17.2578 23.6445 17.3018 23.7031C17.4336 23.835 17.0967 27.043 16.7451 29.1377C16.584 30.1045 16.1592 32.082 15.793 33.5176C15.4414 34.9678 15.1484 36.2568 15.1484 36.4033C15.1484 36.6084 15.0459 36.6377 14.5332 36.5791C13.1416 36.4326 13.1709 36.5352 14.0791 35.0996C15.6025 32.6826 16.0713 31.4521 15.8223 30.4707C15.6904 29.9434 15.0166 29.1963 14.416 28.9473C14.1084 28.8154 13.2002 28.6982 12.1455 28.6396L10.3877 28.5518L10.4316 26.5889C10.4609 25.5195 10.5342 24.333 10.5928 23.9521L10.6807 23.2783L11.4131 23.1758C12.4678 23.0439 15.3682 23.1758 16.3643 23.4102ZM12.3945 31.1152C12.8633 31.1152 13.127 31.1885 13.1855 31.3203C13.2734 31.5693 11.4131 34.748 10.5781 35.7588C9.77246 36.7402 9.06933 37.1504 8.41016 37.0478C6.81348 36.7842 6.82812 36.7842 6.44727 37.1797C5.71484 37.8975 6.03711 38.8496 7.13574 39.3184C8.13183 39.7578 9.3623 39.6846 10.5049 39.1279L11.3398 38.7178L13.3027 38.9375C15.6904 39.2158 16.6426 39.2305 16.8916 38.9814C17.0088 38.8936 16.8916 39.0986 16.6426 39.4648C16.0859 40.2852 14.7676 41.5742 13.6396 42.3799C13.1709 42.7168 12.7314 43.1562 12.6582 43.3467C12.585 43.5371 12.585 44.3135 12.6729 45.1924C13.2441 51.623 14.9287 58.2881 17.4629 64.2354C18.3711 66.3447 18.4297 66.5937 18.166 67.209C17.9316 67.7656 17.3457 68.249 16.1738 68.8496C14.6064 69.6553 12.7607 69.2891 11.4717 67.9268C10.7246 67.1504 10.3584 66.3594 9.94824 64.6162C8.57129 58.7422 7.89746 53.4102 7.73633 46.9062C7.61914 42.5703 7.57519 42.3652 6.13965 39.7578C4.77734 37.2969 4.80664 37.3994 5.33398 36.2568C6.05176 34.7187 7.26758 32.917 8.55664 31.4961L9.06933 30.9248L10.373 31.0273C11.0908 31.0713 11.999 31.1152 12.3945 31.1152ZM27.0576 37.2383C28.4785 39.8457 30.0019 41.4717 31.9795 42.4678C34.3086 43.625 37.1064 43.8301 40.1387 43.0391C40.6953 42.8926 41.0176 42.8779 41.1494 42.9805C41.2373 43.0537 41.7939 44.0352 42.3799 45.1484C43.6543 47.6094 44.5039 48.6348 45.8369 49.2939C46.7305 49.7334 46.8477 49.748 48.0635 49.6895C50.2021 49.5869 51.4473 48.7812 53.5566 46.1445C55.1826 44.123 55.5195 43.7715 56.5303 43.083C57.0137 42.7461 57.7168 42.1894 58.1123 41.8232C58.4932 41.4717 58.8447 41.208 58.8887 41.2666C59.0937 41.4717 60.1631 44.1523 60.4853 45.2803C61.1592 47.5947 61.8184 51.4912 62.0967 54.9336L62.1992 56.1201L61.6279 56.3545C60.6465 56.7353 58.3613 57.3213 56.6035 57.6143C55.6807 57.7754 54.9189 57.8926 54.9189 57.8779C54.9043 57.8633 54.7285 56.7207 54.4941 55.3584C53.791 51.0225 53.7324 50.8906 52.6484 50.8906C51.916 50.8906 51.4766 51.2861 51.4766 51.96C51.4766 52.2236 51.7695 54.1865 52.1211 56.3105C52.8096 60.3975 53.5127 65.7002 53.8935 69.4941C54.0107 70.7393 54.1426 72.0723 54.1865 72.4531L54.2744 73.1562H41.5742H28.874L28.9766 72.4531C29.4014 69.2012 29.3721 67.2822 28.8447 66.0078C28.7129 65.7148 28.2295 64.8799 27.7461 64.1475C24.9336 59.7969 23.8789 55.8125 24.6113 52.2383C24.7285 51.623 25.168 50.29 25.5635 49.2939C25.959 48.2978 26.2812 47.2871 26.2812 47.0527C26.2812 46.4961 25.6953 45.9102 25.1387 45.9102C24.4795 45.9102 24.0254 46.3789 23.5127 47.624C23.249 48.2539 23 48.7959 22.9707 48.8252C22.9414 48.8545 22.6045 48.6787 22.2236 48.4297C21.8428 48.1807 21.0664 47.7705 20.4951 47.4922C19.9385 47.2285 19.4404 46.9941 19.4111 46.9795C19.2939 46.9062 20.9785 42.8779 22.1357 40.5195C23.5273 37.6631 24.0547 36.9746 25.3291 36.3594C25.8125 36.1396 26.2373 35.9492 26.2812 35.9492C26.3252 35.9492 26.6621 36.5352 27.0576 37.2383ZM20.4951 50.3779C22.2383 51.4912 22.1943 51.418 22.0039 52.5898C21.8428 53.6885 21.9307 56.4131 22.1797 57.4531C22.3262 58.0391 22.2822 58.2002 21.7842 59.3574C21.3008 60.5 19.8359 63.2539 19.7627 63.1514C19.7334 63.1367 19.4258 62.3604 19.0596 61.4375C18.2393 59.3281 17.3311 56.5449 16.8477 54.5967L16.4668 53.0879L17.4189 51.1836L18.3711 49.2793L18.9277 49.499C19.2207 49.6309 19.9385 50.0264 20.4951 50.3779ZM62.5215 59.123C62.5947 59.4307 63.1807 65.6123 63.6787 71.1494L63.8691 73.1562H60.3096C58.3467 73.1562 56.75 73.127 56.75 73.083C56.75 72.6436 55.9443 65.29 55.666 63.1953C55.4609 61.7158 55.3291 60.4561 55.373 60.3975C55.4023 60.3389 55.8125 60.251 56.2666 60.1924C57.4238 60.0605 60.1484 59.46 61.2178 59.123C62.375 58.7422 62.4482 58.7422 62.5215 59.123Z" fill="white"/>
<path d="M29.5478 13.7568C28.083 14.3867 28.8154 16.3935 30.4121 16.1006C30.8809 16.0127 30.9834 16.0566 31.5254 16.5986C32.1406 17.2138 32.5068 17.3164 33.0635 17.0234C34.0742 16.4961 33.957 15.3095 32.8144 14.2988C31.9795 13.5664 30.5439 13.3174 29.5478 13.7568Z" fill="white"/>
<path d="M26.8379 21.1543C26.457 21.5498 26.3984 21.6816 26.4717 22.1357C26.5889 22.7803 26.8232 23.0586 27.79 23.5859C28.4785 23.9668 28.6836 24.0107 29.9434 24.0107C31.2178 24.0107 31.4082 23.9668 32.1113 23.5713C33.0781 23.0439 33.459 22.5752 33.459 21.9307C33.459 20.8174 32.1846 20.334 31.2617 21.1104C30.9394 21.374 30.5732 21.5205 30.0898 21.5645C29.46 21.623 29.2842 21.5645 28.6836 21.1689C27.8047 20.5977 27.4092 20.5977 26.8379 21.1543Z" fill="white"/>
</g>
<defs>
<clipPath id="clip0_128_176">
<rect width="75" height="75" fill="white" transform="translate(0.5 0.5)"/>
</clipPath>
</defs>
</svg>
