<svg width="69" height="76" viewBox="0 0 69 76" fill="none" xmlns="http://www.w3.org/2000/svg">
<g clip-path="url(#clip0_128_165)">
<path d="M19.9964 0.682027C19.2877 1.03592 19.2776 1.06625 19.308 5.62642C19.3383 9.56979 19.3485 9.69113 19.551 9.97424C19.6623 10.1259 19.9458 10.318 20.1686 10.3989C20.5229 10.5304 20.6343 10.5304 20.9583 10.3989C21.1709 10.318 21.4341 10.1259 21.5556 9.97424C21.7683 9.69113 21.7683 9.60013 21.7683 5.5253C21.7683 0.884252 21.7885 1.00559 21.0595 0.661804C20.6343 0.45958 20.4318 0.45958 19.9964 0.682027Z" fill="white"/>
<path d="M42.463 2.24923C41.6531 2.52223 40.752 3.18958 40.3166 3.80636C40.1344 4.05914 39.942 4.33215 39.8914 4.40292C39.8104 4.52426 39.6686 4.48381 39.0814 4.2007C37.0464 3.2098 34.8291 3.57381 33.2597 5.16126C32.2675 6.16228 31.8423 7.29473 31.8423 8.93275C31.8423 9.84276 31.822 9.91354 31.6702 9.85287C30.7691 9.46865 30.3641 9.36753 29.6554 9.32709C27.2153 9.16531 25.1296 10.6921 24.5019 13.0986C24.1071 14.6153 24.5222 15.4646 25.6561 15.4646C26.3345 15.4646 26.6585 15.0905 26.8306 14.1198C26.9015 13.6951 27.0635 13.1896 27.185 12.9975C28.0658 11.5617 29.9692 11.3493 31.0931 12.5526C31.7309 13.2199 31.7815 13.4221 31.8423 15.414C31.8929 17.406 31.9435 17.5677 32.5105 17.8407C32.9459 18.043 33.3509 18.0329 33.7052 17.8003C34.2722 17.4262 34.2621 17.4868 34.2722 12.775C34.2722 7.92163 34.2925 7.73963 34.9303 7.00151C36.1351 5.59605 38.2816 5.91961 39.0915 7.6284L39.3345 8.13396V16.3038C39.3345 25.2725 39.3143 24.9388 39.9319 25.3028C40.2862 25.5152 40.7722 25.5253 41.1468 25.3332C41.7543 25.0197 41.7138 25.6567 41.7644 15.4747C41.8151 6.12183 41.8151 6.11172 42.0378 5.70727C42.6757 4.52426 43.8501 4.14003 45.0145 4.71637C45.4194 4.92871 45.6321 5.12082 45.8649 5.49493L46.1687 5.99039L46.2193 17.5273C46.2598 26.2836 46.3003 29.1148 46.3914 29.2765C46.5939 29.6304 46.9888 29.8225 47.495 29.8225C47.8899 29.8225 48.0114 29.772 48.305 29.4788L48.6492 29.135V20.2472C48.6492 14.5445 48.6897 11.2078 48.7606 10.9146C48.9023 10.2775 49.2871 9.77198 49.854 9.45853C51.069 8.80131 52.5978 9.41809 52.9927 10.7123C53.0737 11.0056 53.1041 14.959 53.1041 26.0308C53.0939 42.593 53.0433 41.2786 53.752 41.6223C54.2076 41.8347 54.7746 41.7235 55.1189 41.3595C55.291 41.1673 55.5137 40.6517 55.7668 39.8225C57.7108 33.5334 59.6344 27.4666 59.7964 27.1228C60.2521 26.1825 61.3253 25.4343 62.3985 25.3028C63.087 25.2219 63.8159 25.3433 63.9273 25.5556C63.988 25.6668 63.6438 27.9317 62.925 32.2593L61.8315 38.7912L58.379 46.9813C55.6858 53.3514 54.9265 55.2523 54.9265 55.5859C54.9265 56.0814 54.2178 55.2422 61.4974 63.3413C64.3424 66.5061 66.8128 69.2058 66.9951 69.3372C67.5519 69.7315 68.3113 69.5495 68.696 68.9227C68.9491 68.5182 68.9491 68.1845 68.7264 67.77C68.6251 67.5981 67.0153 65.7578 65.1423 63.6749C63.2692 61.6021 60.7988 58.862 59.6547 57.588L57.569 55.2725L57.7614 54.8074C57.8626 54.5546 59.3611 50.9955 61.0924 46.9004L64.2412 39.4687L65.3549 32.7346C65.9624 29.0339 66.4686 25.8488 66.4686 25.6466C66.4686 24.686 65.6991 23.5738 64.7474 23.1592C63.3806 22.5627 61.2848 22.7548 59.8066 23.6143C59.0371 24.0591 58.0348 25.1309 57.6399 25.9297C57.4374 26.3241 56.9514 27.7093 56.5464 29.0136C56.1414 30.318 55.7567 31.501 55.696 31.6426C55.615 31.8347 55.5745 29.2058 55.534 21.0157L55.4833 10.1461L55.1087 9.38776C54.5114 8.19463 53.6305 7.39585 52.4055 6.95095C51.5854 6.64762 50.1173 6.65773 49.3579 6.95095C49.0542 7.07229 48.7707 7.1734 48.7302 7.1734C48.6796 7.1734 48.6492 6.85995 48.6492 6.48584C48.6492 5.73761 48.4163 4.89838 48.0012 4.2007C47.6266 3.56369 46.7053 2.75479 45.9459 2.39079C45.3283 2.10767 45.1461 2.06723 44.1944 2.0369C43.2933 2.01668 43.03 2.047 42.463 2.24923Z" fill="white"/>
<path d="M8.28222 3.78616C7.79623 3.98838 7.52287 4.49395 7.57349 5.03995C7.62411 5.47473 7.72536 5.58596 11.6537 9.50911C15.8352 13.685 15.9567 13.7862 16.5439 13.594C17.1818 13.3918 17.5766 12.6941 17.4146 12.0571C17.3337 11.6931 9.65917 3.97827 9.19344 3.77605C8.78845 3.60416 8.69733 3.60416 8.28222 3.78616Z" fill="white"/>
<path d="M5.45747 15.7578C4.81962 16.1521 4.74875 17.0622 5.31573 17.6385L5.61947 17.9418L9.80095 17.9722L13.9824 18.0025L14.3368 17.7598C15.0253 17.2947 15.0658 16.3645 14.4178 15.8185L14.1039 15.5657H9.94269C6.0447 15.5657 5.75109 15.5758 5.45747 15.7578Z" fill="white"/>
<path d="M21.3127 16.8903C20.0977 17.0925 18.8625 17.9318 18.1639 19.0137C17.6577 19.8125 17.4653 20.5809 17.4653 21.8448C17.4653 22.4515 17.4552 22.9469 17.4349 22.9469C17.4248 22.9469 17.1413 22.8559 16.8072 22.7346C14.5089 21.9257 12.1195 22.9166 11.0159 25.131L10.6312 25.9196L10.5805 36.2331C10.5502 41.9156 10.4995 46.5061 10.4692 46.4555C10.4287 46.3949 10.0743 45.3534 9.67944 44.1299C8.86947 41.6729 8.65685 41.2078 7.938 40.3989C6.6623 38.9732 4.76899 38.2755 2.8858 38.5283C1.54935 38.7204 0.698877 39.2664 0.31414 40.1866C-0.0402223 41.0157 0.00027632 41.41 1.00262 48.1441L1.96446 54.5951L4.64749 60.9348C6.12569 64.4333 7.34065 67.3554 7.34065 67.4363C7.34065 67.5172 6.79392 69.044 6.12569 70.8135C5.45746 72.5829 4.91073 74.1603 4.91073 74.3018C4.91073 74.7063 5.27522 75.2118 5.6802 75.3837C6.27756 75.6365 6.98628 75.3837 7.22928 74.8377C7.59376 74.0491 9.97306 67.5779 9.97306 67.3858C9.97306 67.2543 8.70748 64.1805 7.16853 60.5506L4.37413 53.9378L3.48316 47.9722C2.98705 44.6861 2.59219 41.8145 2.58206 41.5718C2.58206 41.1977 2.61244 41.1269 2.86555 41.0359C3.01742 40.9752 3.46291 40.9449 3.84764 40.9651C4.9816 41.046 6.03457 41.7033 6.52055 42.6436C6.74329 43.0784 10.5805 54.7973 10.5805 55.04C10.5805 55.3433 10.8843 55.7983 11.188 55.9601C11.7854 56.2735 12.5042 56.0713 12.8485 55.5051C13.0003 55.2422 13.0105 53.9884 13.0105 41.046C13.0105 30.7124 13.0408 26.7589 13.1218 26.4757C13.3952 25.586 14.2558 24.9591 15.1974 24.949C16.22 24.9388 17.1413 25.6567 17.364 26.6476C17.4248 26.8701 17.4653 30.9146 17.4653 35.8185C17.4653 45.4848 17.4349 45.0096 18.093 45.3534C18.5486 45.5961 19.1359 45.4848 19.5307 45.1006L19.8446 44.7872L19.8952 32.8256L19.9458 20.8539L20.2496 20.3585C20.4824 19.9843 20.6951 19.7922 21.1 19.5799C22.0315 19.1148 22.9124 19.2563 23.6717 19.9945C24.3804 20.6921 24.3501 20.045 24.3501 32.9773C24.3501 45.7781 24.3096 45.0096 24.9778 45.3534C25.4638 45.6062 26.051 45.4848 26.4459 45.0501L26.78 44.6861V34.0491C26.78 26.7589 26.8205 23.2705 26.8913 22.9975C27.0635 22.3605 27.4583 21.865 28.0253 21.5819C29.301 20.955 30.7488 21.6123 31.1234 22.9975C31.2044 23.2705 31.2348 27.0319 31.2348 34.9995V46.587L31.4981 46.9004C32.0245 47.5273 32.9864 47.4869 33.4319 46.8195L33.6647 46.4757V39.2766V32.0875L33.9482 31.5314C34.1305 31.1775 34.3735 30.8842 34.657 30.682C35.0518 30.409 35.1733 30.3787 35.882 30.3787C36.5705 30.3787 36.7224 30.409 37.0869 30.6517C37.3096 30.8034 37.6336 31.1471 37.7855 31.41L38.069 31.8954L38.0993 43.6749C38.1297 55.9803 38.0892 57.5172 37.7045 59.5293C37.0059 63.139 35.4568 66.4656 33.1484 69.2968C32.5611 70.0147 32.2372 70.5708 31.5082 72.0774C30.9615 73.2199 30.6071 74.0693 30.6071 74.2715C30.6071 75.2624 31.6803 75.8185 32.5206 75.2725C32.6624 75.1714 33.1281 74.3726 33.6749 73.2806C34.3127 72.0066 34.7886 71.2078 35.2037 70.7022C35.8517 69.9035 37.0059 68.225 37.3197 67.6082C37.4311 67.3959 37.5627 67.2543 37.6133 67.2846C37.6538 67.315 39.1624 69.135 40.9545 71.3291C43.8198 74.8377 44.2652 75.3332 44.5994 75.4343C45.541 75.7174 46.4724 74.7872 46.1383 73.8974C46.0472 73.6749 39.6585 65.7376 38.9701 64.9995L38.7271 64.7467L38.9903 64.1097C39.3953 63.0986 39.9319 61.1471 40.2154 59.6001L40.4888 58.1845L40.5292 45.1411C40.5495 35.3736 40.5292 31.956 40.4482 31.5415C40.1445 30.1663 39.2232 28.9631 37.9778 28.3564C36.7325 27.7397 35.558 27.6588 34.3026 28.1037C33.9887 28.2149 33.7052 28.3059 33.6951 28.3059C33.6749 28.3059 33.6647 27.0925 33.6647 25.5961C33.6647 23.6345 33.6242 22.7548 33.523 22.3807C32.7636 19.5192 29.6756 18.0632 27.0027 19.3069L26.375 19.6001L26.1826 19.226C25.3423 17.588 23.2363 16.5769 21.3127 16.8903Z" fill="white"/>
</g>
<defs>
<clipPath id="clip0_128_165">
<rect width="68.797" height="75" fill="white" transform="translate(0.101501 0.5)"/>
</clipPath>
</defs>
</svg>
