<svg width="75" height="70" viewBox="0 0 75 70" fill="none" xmlns="http://www.w3.org/2000/svg">
<g clip-path="url(#clip0_128_185)">
<path d="M73.0023 26.1809C72.6894 25.2164 72.0996 24.3653 71.3065 23.7335C70.5134 23.1018 69.5519 22.7173 68.5419 22.6281L49.3599 20.9744L41.8409 3.09403C41.4494 2.15581 40.7891 1.3544 39.9431 0.790699C39.0971 0.226997 38.1032 -0.0737915 37.0866 -0.0737915C36.07 -0.0737915 35.0761 0.226997 34.2301 0.790699C33.3841 1.3544 32.7237 2.15581 32.3323 3.09403L24.8358 20.9744L5.63126 22.6377C4.61721 22.723 3.65088 23.1057 2.85347 23.7379C2.05606 24.3701 1.46305 25.2237 1.14881 26.1915C0.834572 27.1594 0.813093 28.1986 1.08707 29.1786C1.36104 30.1587 1.91827 31.036 2.68888 31.7006L17.2586 44.4326L12.8919 63.3401C12.661 64.3295 12.7269 65.3651 13.0813 66.3173C13.4358 67.2695 14.063 68.096 14.8847 68.6937C15.7064 69.2913 16.686 69.6335 17.7011 69.6774C18.7161 69.7213 19.7216 69.465 20.5918 68.9406L37.064 58.9281L53.5716 68.9406C54.4418 69.465 55.4473 69.7213 56.4624 69.6774C57.4775 69.6335 58.4571 69.2913 59.2788 68.6937C60.1004 68.096 60.7277 67.2695 61.0821 66.3173C61.4366 65.3651 61.5025 64.3295 61.2716 63.3401L56.9081 44.4133L71.4746 31.7006C72.2451 31.0337 72.8012 30.1539 73.0731 29.1718C73.3449 28.1896 73.3203 27.149 73.0023 26.1809ZM68.0865 27.7958L53.52 40.5084C52.811 41.1251 52.2836 41.9234 51.9945 42.8174C51.7054 43.7115 51.6656 44.6674 51.8792 45.5825L56.2556 64.5222L39.7609 54.5097C38.9561 54.0196 38.032 53.7604 37.0898 53.7604C36.1476 53.7604 35.2235 54.0196 34.4187 54.5097L17.9466 64.5222L22.294 45.5954C22.5076 44.6804 22.4677 43.7244 22.1786 42.8304C21.8895 41.9363 21.3621 41.138 20.6532 40.5213L6.08021 27.8152C6.07902 27.8055 6.07902 27.7957 6.08021 27.7861L25.2783 26.126C26.2156 26.0433 27.1126 25.7064 27.8724 25.1514C28.6323 24.5965 29.2262 23.8446 29.5901 22.9769L37.0866 5.11913L44.5798 22.9769C44.9437 23.8446 45.5376 24.5965 46.2975 25.1514C47.0574 25.7064 47.9543 26.0433 48.8916 26.126L68.093 27.7861V27.8087L68.0865 27.7958Z" fill="white"/>
</g>
<defs>
<clipPath id="clip0_128_185">
<rect width="73.4314" height="70" fill="white" transform="translate(0.784317)"/>
</clipPath>
</defs>
</svg>
