<svg width="147" height="75" viewBox="0 0 147 75" fill="none" xmlns="http://www.w3.org/2000/svg">
<g clip-path="url(#clip0_128_261)">
<path d="M110.303 4.49031C111.229 4.91129 111.789 5.22433 112.144 5.51578C112.693 5.97993 113.533 6.86508 113.673 7.12415C114.33 8.34391 114.825 9.5313 114.825 9.88751C114.825 10.0278 114.922 10.546 115.04 11.0533C115.159 11.5606 115.331 12.4782 115.428 13.1042C115.525 13.7303 115.697 14.637 115.805 15.112C115.923 15.5978 116.009 16.0943 116.009 16.2238V16.4505H128.983C139.954 16.4505 141.967 16.4721 142.021 16.6016C142.053 16.688 142.225 16.7851 142.409 16.8175C143.119 16.9578 143.916 17.843 144.045 18.631C144.099 18.9548 144.067 19.0843 143.884 19.311C143.744 19.4621 143.582 19.5809 143.507 19.5809C143.421 19.5809 143.313 19.678 143.248 19.7968C143.184 19.9155 143.162 20.0127 143.205 20.0127C143.388 20.0127 142.85 20.4552 142.452 20.6387C142.139 20.7791 141.806 20.833 141.31 20.8222C140.137 20.7791 139.082 20.7791 118.938 20.833C105.684 20.8654 99.429 20.8438 99.429 20.7683C99.429 20.7143 99.3644 20.6603 99.289 20.6603C99.1168 20.6603 98.6754 20.1962 98.3739 19.678C98.0617 19.1491 98.0617 18.4043 98.3739 17.8106C98.6323 17.3356 98.923 17.0658 99.5367 16.7204C99.9027 16.5153 100.129 16.5045 105.749 16.4721C109.474 16.4505 111.595 16.4073 111.595 16.3426C111.595 16.2778 111.498 15.8784 111.38 15.4574C111.261 15.0256 111.164 14.5075 111.164 14.2916C111.164 14.0865 111.067 13.5684 110.949 13.1582C110.831 12.748 110.734 12.2623 110.734 12.0896C110.734 11.5499 110.282 10.0494 109.991 9.60686C109.84 9.36938 109.571 9.07793 109.409 8.95919C109.108 8.73251 109.043 8.73251 98.8584 8.67854C84.9267 8.60297 45.9523 8.64616 45.5216 8.73251C45.091 8.82966 44.4665 9.44494 44.165 10.0818C43.8528 10.7511 43.7882 12.1975 44.0251 13.1906C44.122 13.59 44.2404 14.2485 44.2942 14.6694C44.3373 15.0796 44.4557 15.8352 44.5526 16.3426C44.6495 16.8499 44.811 17.7674 44.8972 18.3935C45.0587 19.4621 45.3709 21.2648 45.6077 22.6033C45.6723 22.9272 45.7692 23.51 45.8231 23.8986C45.8877 24.2872 46.0276 25.1616 46.1353 25.8416C46.2537 26.5217 46.4152 27.5687 46.5121 28.1624C46.5983 28.7561 46.749 29.6305 46.8459 30.1054C46.9428 30.5804 47.0612 31.282 47.1043 31.6706C47.1904 32.383 47.3842 33.5596 47.7503 35.5026C47.8579 36.0963 48.0302 37.165 48.1271 37.8774C48.2347 38.5898 48.407 39.6261 48.5147 40.1766C48.6223 40.7271 48.7192 41.3316 48.7192 41.5259C48.7192 41.7202 48.7946 42.1412 48.8807 42.465C48.9776 42.7889 49.0961 43.4257 49.1499 43.8683C49.2037 44.3109 49.3222 45.142 49.4191 45.7033C49.516 46.2646 49.6667 47.193 49.7528 47.7543C49.8497 48.3156 50.0112 49.3087 50.1189 49.9671C50.2373 50.6148 50.4311 51.759 50.5495 52.5038C50.668 53.2486 50.851 54.2633 50.9479 54.7706C51.0448 55.278 51.1632 56.0444 51.217 56.4869C51.2601 56.9295 51.3785 57.5664 51.4647 57.901C51.5508 58.2464 51.6262 58.6998 51.6262 58.9157C51.6262 59.1316 51.7338 59.7253 51.863 60.2326C52.0676 61.0746 52.143 61.2149 52.6597 61.7438L53.2196 62.3267H66.796H80.3725V62.0569C80.3725 61.6899 80.8893 59.7145 81.0185 59.5849C81.0831 59.5202 81.1261 59.3906 81.1261 59.2935C81.1261 59.0344 81.5568 58.2356 82.2889 57.1238C82.7518 56.4114 84.679 54.5548 84.9482 54.5548C85.002 54.5548 85.1205 54.49 85.2066 54.4144C85.3035 54.3389 85.648 54.1554 85.971 54.0258C86.294 53.8855 86.7246 53.702 86.9184 53.6156C87.1015 53.5293 87.8336 53.3566 88.5334 53.2378C89.6531 53.0327 89.89 53.0219 90.7082 53.1299C92.2909 53.3566 92.883 53.4753 93.1199 53.6372C93.2383 53.7236 93.3998 53.7991 93.486 53.7991C93.6797 53.7991 94.8425 54.3497 94.8856 54.4684C94.9071 54.5116 95.004 54.5548 95.0901 54.5548C95.2409 54.5548 95.3916 54.6519 96.296 55.3859C98.3416 57.0483 99.6551 59.11 100.323 61.733L100.463 62.2727L109.065 62.3051L117.667 62.3267L118.076 62.0461C118.303 61.8842 118.486 61.7006 118.486 61.6143C118.486 61.5387 118.529 61.4632 118.572 61.4416C118.626 61.4308 118.798 61.1285 118.949 60.7939C119.304 60.0383 119.325 59.1855 119.024 57.9658C118.905 57.5016 118.809 56.9943 118.809 56.8324C118.809 56.6812 118.733 56.1955 118.647 55.7421C118.561 55.2996 118.432 54.5548 118.367 54.0906L118.238 53.2594H115.363C112.672 53.2594 112.446 53.2486 111.972 53.0327C111.207 52.6981 110.777 52.2124 110.626 51.5215C110.411 50.5824 110.766 49.7081 111.574 49.1468L111.961 48.8877L130.856 48.8553C141.256 48.8445 149.87 48.8553 150.01 48.8877C150.15 48.9201 150.225 48.9956 150.193 49.0496C150.16 49.1144 150.322 49.3842 150.548 49.6757C151.011 50.2262 151.323 50.7767 151.323 51.0358C151.323 51.1329 151.119 51.3056 150.871 51.4352C150.623 51.5647 150.343 51.7374 150.257 51.8346C150.096 51.9857 150.085 51.9641 150.053 51.6079C149.988 50.8847 149.493 50.7443 148.47 51.1437C148.233 51.2301 147.759 51.3056 147.415 51.3164C147.07 51.3164 146.629 51.392 146.424 51.4676C145.746 51.759 146.004 51.9965 147.113 52.1152C147.49 52.1476 147.867 52.234 147.942 52.2987C148.072 52.4067 148.858 52.3743 149.676 52.2232C149.87 52.18 150.031 52.2016 150.031 52.2555C150.031 52.493 149.73 52.6118 149.116 52.6118C148.761 52.6118 148.298 52.6657 148.093 52.7305C146.823 53.1407 144.023 53.2378 132.288 53.2486C123.18 53.2594 122.674 53.2702 122.728 53.4429C122.76 53.5509 122.835 54.0042 122.889 54.4576C122.954 54.9002 123.072 55.5586 123.169 55.9041C123.255 56.2603 123.33 56.6812 123.33 56.854C123.33 57.0267 123.406 57.4692 123.503 57.8362C123.75 58.7754 123.729 60.1355 123.449 61.2581C123.234 62.1324 122.458 63.8487 122.243 63.9243C122.189 63.9459 122.146 64.0322 122.146 64.1078C122.146 64.3453 120.467 65.8349 119.864 66.1264C118.496 66.7956 119.185 66.7524 109.442 66.7524H100.516L100.333 67.3677C100.226 67.7131 100.064 68.2313 99.9781 68.5335C99.7735 69.1488 98.9661 70.66 98.7292 70.8543C98.6431 70.9299 98.5677 71.0378 98.5677 71.0918C98.5677 71.4048 96.0591 73.6608 95.7146 73.6608C95.6392 73.6608 95.4777 73.758 95.3378 73.8767C95.1978 73.9955 95.0256 74.0926 94.9394 74.0926C94.8641 74.0926 94.681 74.1682 94.5518 74.2545C93.9704 74.6323 92.6677 74.8482 91.0097 74.8482C88.8887 74.8482 88.1889 74.6863 86.3263 73.7364C85.9495 73.5421 85.648 73.3586 85.648 73.3262C85.648 73.283 85.5619 73.2183 85.4542 73.1859C85.3573 73.1535 85.1743 73.0564 85.0559 72.9808C84.5283 72.6678 82.7734 70.9191 82.6765 70.606C82.6442 70.5089 82.5688 70.4225 82.515 70.4225C82.4612 70.4225 82.4181 70.3686 82.4181 70.293C82.4181 70.2282 82.3427 70.0771 82.2351 69.9692C81.8367 69.5266 81.0077 67.7779 80.8354 66.9899L80.7816 66.7524H59.4749H38.1789L38.0174 66.9899C37.9205 67.1194 37.8452 67.3353 37.8452 67.4541C37.8452 67.5728 37.7483 67.8103 37.6298 67.9938C37.5114 68.1665 37.4145 68.3824 37.4145 68.4579C37.4145 68.5335 37.3284 68.7278 37.2099 68.8897C37.1023 69.0516 36.8224 69.4726 36.5963 69.8288C36.3702 70.185 35.8211 70.8435 35.3689 71.2861C34.2169 72.4411 34.2492 72.4087 32.1713 73.4126C31.9882 73.5097 31.6437 73.6177 31.4176 73.6608C31.1915 73.7148 30.664 73.8228 30.2548 73.9199C29.232 74.1466 28.0585 74.1358 27.0788 73.8767C26.6373 73.758 26.1852 73.6608 26.0775 73.6608C25.9806 73.6608 25.6576 73.5637 25.3777 73.4342C23.7089 72.6893 22.7722 72.1172 21.9647 71.3508C21.6848 71.081 21.4156 70.8543 21.3618 70.8543C21.308 70.8543 21.2649 70.8111 21.2649 70.7679C21.2649 70.7248 21.0926 70.4873 20.8773 70.2606C20.662 70.0231 20.4251 69.6993 20.339 69.5374C20.2529 69.3647 20.1344 69.2351 20.0806 69.2351C20.016 69.2351 19.9729 69.138 19.9729 69.0193C19.9729 68.9005 19.9299 68.8034 19.8868 68.8034C19.833 68.8034 19.5853 68.3824 19.327 67.875C18.9932 67.2058 18.7886 66.9251 18.5841 66.8496C18.4226 66.7848 16.377 66.7308 13.6746 66.7092C8.71127 66.6877 8.52824 66.6661 7.37624 66.1048C6.26729 65.565 5.99814 65.3707 5.1153 64.4856C4.45854 63.8271 4.26474 63.5897 4.06018 63.1903C3.98482 63.0392 3.80179 62.7045 3.66182 62.4347C3.51109 62.1648 3.39267 61.8734 3.39267 61.7762C3.39267 61.6791 3.29576 61.3876 3.17734 61.1285C3.0589 60.8587 2.96201 60.4161 2.96201 60.1139C2.96201 59.8116 2.88664 59.2287 2.78975 58.8185C2.70361 58.3976 2.58519 57.6743 2.53136 57.1994C2.48828 56.7244 2.35909 55.8285 2.26219 55.2024C2.10069 54.1554 2.04686 53.7668 1.76694 51.8561C1.70233 51.4676 1.60544 50.8091 1.54085 50.3989C1.48701 49.9779 1.39011 49.2547 1.34705 48.7797C1.30399 48.3048 1.18555 47.5276 1.09943 47.0526C1.01329 46.5777 0.905624 45.8545 0.862564 45.4443C0.830261 45.0341 0.733368 44.408 0.647232 44.041C0.561096 43.6848 0.485733 43.1343 0.485733 42.8428C0.485733 42.5406 0.41037 42.0117 0.324234 41.6554C0.0766144 40.6408 -0.0633545 38.633 0.0443115 37.6615C0.119675 36.8735 0.345764 36.0424 0.614929 35.5134C0.894852 34.9737 1.17479 34.4987 1.41165 34.1857C1.55161 34.0022 1.67004 33.8079 1.67004 33.7647C1.67004 33.7216 1.74541 33.6136 1.83153 33.5165C2.10069 33.225 2.96201 32.1132 2.96201 32.0484C2.96201 32.016 3.03737 31.9081 3.1235 31.8109C3.34959 31.5303 3.96329 30.6991 4.09248 30.494C4.14632 30.3969 4.22168 30.2997 4.25398 30.2673C4.40471 30.1162 5.33061 28.8749 5.33061 28.8209C5.33061 28.7885 5.39522 28.6698 5.48135 28.5726C6.18117 27.7091 6.63335 27.1262 6.79485 26.8563C6.91328 26.6836 7.35471 26.0683 7.7746 25.4962C8.20525 24.9133 8.56053 24.3952 8.56053 24.3412C8.56053 24.2765 8.62514 24.1901 8.68974 24.1469C8.88353 24.0282 9.85251 22.7328 9.85251 22.6033C9.85251 22.5386 9.89557 22.4954 9.96017 22.4954C10.014 22.4954 10.2401 22.2147 10.4662 21.8801C11.0691 20.9842 11.0691 20.9842 11.3383 20.6711C11.7689 20.1746 12.0489 19.7752 12.1888 19.4729C12.2319 19.3866 12.3503 19.2463 12.458 19.1707C12.5656 19.0951 12.6518 18.9656 12.6518 18.8792C12.6518 18.7929 12.7379 18.6634 12.8348 18.5878C12.9425 18.5122 13.0717 18.3719 13.1363 18.2748C13.5562 17.6163 14.0945 16.8823 14.1698 16.8823C14.2237 16.8823 14.2667 16.8283 14.2667 16.7635C14.2667 16.6988 14.4498 16.4181 14.6759 16.1375C14.9019 15.8676 15.1281 15.5546 15.1603 15.4466C15.2034 15.3495 15.2788 15.2631 15.3434 15.2631C15.3972 15.2631 15.451 15.2092 15.451 15.1444C15.451 15.0796 15.6341 14.799 15.8494 14.5291C16.8184 13.3093 17.7981 12.5106 19.004 12.0032C20.7266 11.2692 20.6727 11.2692 30.5778 11.2692H39.4601V10.8806C39.4601 10.3949 39.7401 9.19667 39.9984 8.62457C40.4506 7.5991 40.5152 7.48036 41.1181 6.64919C41.5057 6.10947 42.6577 5.11639 42.8838 5.11639C42.9484 5.11639 43.013 5.0732 43.0346 5.00844C43.0669 4.91129 43.8313 4.58746 44.5742 4.34998C44.768 4.29601 57.7523 4.25283 77.3579 4.26363H109.819L110.303 4.49031ZM21.1465 15.8676C21.0603 15.9324 20.8665 16.0187 20.7158 16.0511C20.3497 16.1483 19.37 17.109 18.9394 17.7998C18.7456 18.1128 18.3903 18.5986 18.1103 18.9224C18.0457 19.0088 17.7766 19.3758 17.5182 19.732C17.2706 20.099 16.9691 20.5092 16.8507 20.6603C16.2155 21.4807 15.6233 22.2903 15.2788 22.7868C15.0634 23.0999 14.8481 23.3589 14.7943 23.3589C14.7405 23.3589 14.6974 23.4129 14.6974 23.4777C14.6974 23.5964 14.0514 24.4707 13.9114 24.5247C13.8684 24.5463 13.8361 24.6111 13.8361 24.6758C13.8361 24.773 13.2116 25.6473 12.824 26.0791C12.7271 26.1871 12.6518 26.295 12.6518 26.3274C12.6518 26.4029 11.6397 27.7199 11.5428 27.763C11.4998 27.7846 11.4675 27.8602 11.4675 27.9142C11.4675 27.9789 11.3921 28.1085 11.306 28.2056C11.2091 28.3028 10.9937 28.5726 10.8215 28.8101C10.6492 29.0476 10.4554 29.2958 10.3908 29.3714C10.337 29.447 10.2832 29.5549 10.2832 29.6089C10.2832 29.6737 10.2186 29.76 10.1432 29.8032C10.0786 29.8464 9.84174 30.127 9.64795 30.4293C9.44339 30.7207 9.20653 31.0122 9.13116 31.0553C9.05579 31.0985 8.9912 31.2065 8.9912 31.2928C8.9912 31.3684 8.94814 31.4547 8.90506 31.4763C8.85123 31.4871 8.65744 31.7462 8.45288 32.0484C8.25908 32.3399 8.02222 32.6313 7.94685 32.6745C7.87149 32.7177 7.80688 32.8256 7.80688 32.912C7.80688 32.9875 7.76382 33.0739 7.72076 33.0955C7.62386 33.1387 6.62259 34.434 6.62259 34.5203C6.62259 34.5527 6.53645 34.6823 6.42879 34.7902C6.33189 34.8981 6.12733 35.168 5.97661 35.3839C5.82587 35.5998 5.59978 35.902 5.45981 36.0531C5.33061 36.2043 5.14758 36.4741 5.05069 36.6684C4.9538 36.8627 4.81383 37.0894 4.74924 37.1758C4.67386 37.2621 4.55544 37.5967 4.49084 37.9206C4.35088 38.5466 4.41547 39.2915 4.80307 41.6231C4.91072 42.3139 5.00763 43.0155 5.00763 43.1882C5.00763 43.4905 5.15836 44.5915 5.55672 47.0526C5.66438 47.7651 5.77203 48.5639 5.79358 48.8337C5.83664 49.2979 5.97661 50.237 6.40726 52.9896C6.51492 53.702 6.68718 54.9649 6.78409 55.7961C6.88098 56.6273 7.05324 57.8039 7.17168 58.4084C7.27934 59.0128 7.37624 59.6389 7.37624 59.79C7.37624 60.4701 8.24831 61.5927 9.16345 62.0892C9.60487 62.3267 9.68025 62.3267 13.8145 62.3267H18.0242L18.0888 61.8086C18.1319 61.5279 18.2072 61.1285 18.2611 60.9234C18.3149 60.7184 18.358 60.4161 18.358 60.2542C18.358 59.8224 19.0147 57.9118 19.3915 57.2749C20.1344 55.9904 21.7279 54.2201 22.5676 53.7452C23.332 53.3134 24.624 52.7197 24.9901 52.6226C25.2269 52.5686 25.7007 52.4498 26.0559 52.3527C27.9293 51.8454 30.9547 52.439 33.0972 53.7452C33.4955 53.9934 34.5076 54.7814 34.5076 54.857C34.5076 54.9002 34.7014 55.0729 34.9382 55.2456C35.1751 55.4291 35.3689 55.6018 35.3689 55.645C35.3689 55.6882 35.5089 55.8609 35.6703 56.0444C36.0579 56.4546 36.9838 57.8255 36.9838 57.9766C36.9838 58.0413 37.0485 58.1493 37.1346 58.2141C37.2207 58.2896 37.3176 58.4623 37.3499 58.6242C37.393 58.7754 37.5114 59.0992 37.6191 59.3475C38.222 60.7184 38.4911 61.5603 38.4588 61.9489L38.4373 62.2727L43.1638 62.3051C48.4178 62.3375 47.9225 62.4023 47.6641 61.6251C47.255 60.3837 47.1689 59.9843 47.1043 58.9805C47.0612 58.3544 46.9535 57.5016 46.8566 57.0914C46.6844 56.2927 46.4798 55.0621 46.3506 53.9071C46.3076 53.5185 46.1891 52.914 46.0922 52.5578C45.9953 52.2124 45.92 51.7698 45.92 51.5863C45.92 51.4136 45.8231 50.7551 45.7046 50.129C45.5862 49.503 45.3924 48.3911 45.274 47.6463C45.1556 46.9015 45.0048 46.0272 44.9402 45.7033C44.8756 45.3795 44.7895 44.7642 44.7357 44.354C44.6603 43.6416 44.5526 43.0047 44.122 40.7379C44.0251 40.2306 43.9067 39.5289 43.8744 39.1727C43.8313 38.8165 43.7236 38.1149 43.6267 37.6075C43.5298 37.1002 43.3683 36.2474 43.2714 35.7185C43.1745 35.1788 43.0453 34.4016 43.0023 33.9914C42.9592 33.5704 42.8623 33.0631 42.8085 32.858C42.7439 32.6529 42.69 32.3075 42.69 32.1024C42.69 31.8973 42.5931 31.2173 42.4747 30.5912C42.0225 28.184 41.9041 27.4932 41.818 26.7592C41.7641 26.3382 41.6565 25.7337 41.5703 25.4099C41.4734 25.086 41.3981 24.6651 41.3981 24.4923C41.3981 24.3088 41.3227 23.7259 41.2366 23.197C41.1397 22.6573 40.9674 21.6426 40.849 20.9302C40.7306 20.2178 40.5475 19.0951 40.4291 18.4475C40.3107 17.789 40.1922 17.001 40.1599 16.6772C40.0415 15.5762 41.1505 15.6841 30.5886 15.7165C23.978 15.7381 21.2541 15.7813 21.1465 15.8676ZM27.1649 57.8362C25.9913 58.1385 25.13 58.6674 24.4518 59.4986C23.3966 60.7723 22.9983 62.6506 23.4505 64.2697C23.7735 65.4247 24.3549 66.4718 24.9685 66.9899C26.3359 68.1449 26.9388 68.3932 28.4784 68.3932C29.9211 68.3932 30.524 68.1773 31.5791 67.2814C32.4512 66.5473 32.5589 66.3746 33.0218 64.9929C33.3017 64.1186 33.334 63.9027 33.291 63.1903C33.1725 61.6251 32.2251 59.5957 31.5684 59.4986C31.4176 59.477 31.2561 59.3151 31.1377 59.0668C31.03 58.8509 30.847 58.635 30.7286 58.6027C30.6209 58.5595 30.524 58.4947 30.524 58.4407C30.524 58.3112 28.5645 57.7391 27.9185 57.6959C27.8216 57.6959 27.4771 57.7499 27.1649 57.8362ZM88.8672 58.9049C88.092 59.1855 87.1338 59.8116 86.6816 60.3513C86.5309 60.5349 86.2186 61.0422 86.0033 61.4848L85.6049 62.2727V63.784V65.2952L86.0248 66.1587C86.2509 66.6337 86.4986 67.0978 86.5847 67.1842C86.66 67.2706 86.8646 67.4864 87.0261 67.67C87.4891 68.1773 88.1243 68.6307 88.8241 68.9761C89.427 69.2675 89.5562 69.2783 90.7621 69.2783C91.9571 69.2783 92.0971 69.2567 92.5923 68.9869C93.206 68.6522 93.4321 68.5011 93.7443 68.2313C93.8735 68.1341 94.0135 68.0478 94.0673 68.0478C94.1104 68.0478 94.1535 67.9722 94.1535 67.8858C94.1535 67.7887 94.2288 67.6915 94.315 67.6592C94.4011 67.6268 94.681 67.1734 94.9287 66.6661L95.3916 65.7378V64.3237C95.3916 63.0931 95.3593 62.8341 95.1547 62.3699C95.0256 62.0784 94.8964 61.7654 94.8533 61.6791C94.5841 61.0098 93.7443 60.0599 92.9692 59.5418C91.6772 58.6782 90.1914 58.4407 88.8672 58.9049Z" fill="black"/>
<path d="M36.93 20.466C37.1346 20.6603 37.2315 20.8762 37.3176 21.4159C37.3822 21.8045 37.5222 22.6249 37.6299 23.251C37.7375 23.877 37.9098 24.9673 38.0067 25.6797C38.1036 26.3921 38.2543 27.3097 38.3404 27.7306C38.4266 28.1408 38.4912 28.605 38.4912 28.7561C38.4912 28.9072 38.5881 29.4901 38.7173 30.0514C38.9649 31.2172 38.9218 31.9944 38.6204 31.9944C38.0497 32.016 36.9623 32.124 36.4994 32.2211C36.1549 32.2859 34.9382 32.3075 33.1618 32.2535C31.0623 32.1995 30.1364 32.2211 29.4474 32.3291C28.9414 32.4046 28.3169 32.4694 28.0478 32.4586C27.7786 32.4478 26.0452 32.4154 24.1826 32.383C22.1262 32.3507 20.5759 32.2751 20.199 32.1995C19.8545 32.124 18.9824 32.07 18.1534 32.0808L16.7 32.1024L16.3662 31.7785C15.914 31.336 15.5049 31.2388 14.9773 31.4115C14.7512 31.4979 14.5252 31.5303 14.4606 31.4979C14.256 31.3684 14.5252 30.6667 15.2142 29.5117C15.3326 29.3066 15.5372 28.9504 15.6556 28.7345C15.7741 28.5186 16.1616 27.8926 16.5169 27.3528C16.883 26.8131 17.1737 26.3166 17.1737 26.2626C17.1737 26.2086 17.2167 26.1655 17.2598 26.1655C17.3136 26.1655 17.4321 26.0035 17.529 25.8092C17.7335 25.4099 17.9596 25.0536 18.0458 24.9781C18.0781 24.9457 18.3365 24.5571 18.6271 24.1145C18.9071 23.672 19.2301 23.1754 19.3485 23.0135C19.4562 22.8516 19.5423 22.6681 19.5423 22.6033C19.5423 22.5493 19.5746 22.4954 19.6177 22.4954C19.6715 22.4954 19.9191 22.1499 20.1883 21.729C20.4574 21.308 20.8127 20.8006 20.985 20.5955L21.2864 20.2285H28.9629H36.6501L36.93 20.466Z" fill="black"/>
<path d="M149.159 17.109C149.267 17.2925 149.46 17.5084 149.59 17.5947C149.708 17.6811 149.816 17.8106 149.816 17.8646C149.816 17.9293 149.902 18.0589 150.01 18.156C150.117 18.264 150.268 18.523 150.343 18.7605C150.505 19.2463 150.397 19.3866 149.87 19.3434C149.622 19.3218 149.504 19.2247 149.364 18.9224C149.17 18.5014 148.718 18.156 148.33 18.1128C148.19 18.0912 147.964 18.0049 147.824 17.9185C147.609 17.7782 147.555 17.7782 147.447 17.9077C147.372 18.0049 147.361 18.1236 147.426 18.2532C147.566 18.5338 147.673 19.2031 147.598 19.2894C147.555 19.3326 147.458 19.2786 147.383 19.1707C147.253 18.998 147.243 19.0088 147.232 19.2247C147.232 19.3866 147.296 19.4729 147.415 19.4837C147.523 19.4945 147.652 19.5053 147.716 19.5269C147.77 19.5377 147.878 19.5593 147.953 19.5593C148.018 19.5701 148.093 19.6888 148.115 19.8184C148.136 19.9911 148.233 20.0774 148.416 20.099C148.782 20.153 148.965 20.3365 148.642 20.3365C148.513 20.3365 148.438 20.3797 148.47 20.4444C148.535 20.5524 148.362 20.5848 147.673 20.574C147.253 20.5632 147.167 20.4552 146.887 19.5809C146.467 18.2532 146.694 17.5731 147.738 17.0874C148.61 16.6772 148.901 16.6772 149.159 17.109Z" fill="black"/>
<path d="M123.04 24.4384C123.546 24.6327 123.966 24.9673 124.127 25.3019C124.17 25.3883 124.267 25.5826 124.353 25.7337C124.439 25.8848 124.515 26.241 124.515 26.5325C124.515 27.1478 124.095 27.9142 123.492 28.3675L123.126 28.6482H108.742H94.358L93.992 28.3783C93.346 27.871 93.0768 27.3421 93.0768 26.5325C93.0768 25.7769 93.3891 24.9781 93.6905 24.9781C93.7659 24.9781 93.8305 24.9133 93.8305 24.8378C93.8305 24.773 94.0135 24.6111 94.2396 24.4923C94.6272 24.2764 94.8641 24.2764 108.58 24.2549C122.028 24.2333 122.544 24.2333 123.04 24.4384Z" fill="black"/>
<path d="M89.5239 24.4168C89.6747 24.5031 89.9008 24.719 90.0407 24.8809C90.2561 25.1508 90.2776 25.2479 90.2022 25.6473C90.1376 25.982 90.0515 26.1223 89.9008 26.1547C89.7823 26.1763 89.6424 26.2626 89.5993 26.349C89.5024 26.5109 88.9426 26.4569 88.6949 26.2518C88.6196 26.1871 88.4904 26.1655 88.3935 26.1978C88.3073 26.241 88.2104 26.2194 88.1781 26.1655C88.0489 25.9604 87.8982 26.0575 87.7367 26.4353C87.6506 26.6404 87.5752 26.8131 87.5537 26.8131C87.5429 26.8131 87.5322 26.5433 87.5322 26.2086C87.5322 25.6581 87.5645 25.5826 87.909 25.2803C88.1135 25.1076 88.4258 24.827 88.6088 24.665C89.0395 24.2764 89.2009 24.2225 89.5239 24.4168Z" fill="black"/>
<path d="M131.201 32.8364C131.341 32.9444 131.545 33.0631 131.642 33.1063C131.75 33.1387 131.836 33.2466 131.836 33.333C131.836 33.4085 131.911 33.5057 131.987 33.5381C132.223 33.6352 132.407 34.4556 132.342 35.1464C132.267 35.9452 131.89 36.4633 131.125 36.798L130.565 37.0462L120.94 37.057C111.412 37.0786 111.315 37.0786 110.809 36.8519C110.486 36.7116 110.174 36.4525 109.926 36.1287C109.571 35.6645 109.549 35.5782 109.549 34.8334C109.549 34.1641 109.592 33.9806 109.829 33.6136C109.991 33.3761 110.325 33.0631 110.572 32.912L111.046 32.6421H120.994C130.469 32.6421 130.953 32.6529 131.201 32.8364Z" fill="black"/>
<path d="M142.602 40.8027C143.087 41.0186 143.324 41.2344 143.657 41.7634C144.023 42.3139 144.056 43.307 143.744 43.8143C143.431 44.3001 142.828 44.8398 142.602 44.8398C142.495 44.8398 142.365 44.883 142.333 44.9477C142.236 45.1096 141.515 45.0773 140.998 44.8938C140.126 44.5915 139.48 43.728 139.48 42.8644C139.48 42.1196 139.975 41.2884 140.611 40.9646C141.235 40.6408 142.086 40.576 142.602 40.8027Z" fill="black"/>
<path d="M136.681 40.7811C137.294 40.9754 137.65 41.2776 137.93 41.8281C138.274 42.5082 138.274 43.1774 137.93 43.8575C137.639 44.4296 137.284 44.7103 136.627 44.9153C136.293 45.0233 132.353 45.0557 118.83 45.0557C102.885 45.0557 101.41 45.0449 100.904 44.8722C100.172 44.6347 99.8274 44.4188 99.9566 44.2569C100.01 44.1921 100.086 43.8899 100.129 43.5984C100.183 43.1343 100.161 43.0263 99.9781 42.8536C99.6551 42.5622 99.0199 42.5838 98.7723 42.886C98.4923 43.2314 97.9971 43.0803 97.9433 42.6377C97.8571 41.9145 99.0953 40.9646 100.236 40.8674C100.699 40.8351 100.818 40.7919 100.667 40.7271C100.301 40.5868 136.239 40.63 136.681 40.7811Z" fill="black"/>
</g>
<defs>
<clipPath id="clip0_128_261">
<rect width="147" height="75" fill="white" transform="matrix(-1 0 0 1 147 0)"/>
</clipPath>
</defs>
</svg>
