<svg xmlns="http://www.w3.org/2000/svg" preserveAspectRatio="none" viewBox="0 145.23 1440 174.77">
  <defs>
    <linearGradient id="gradient" x1="0%" y1="0%" x2="100%" y2="0%">
      <stop offset="0%" style="stop-color: #215FAA" />
      <stop offset="100%" style="stop-color: #5D93D5" />
    </linearGradient>
  </defs>
  <path d="M0,224L48,208C96,192,192,160,288,149.3C384,139,480,149,576,170.7C672,192,768,224,864,229.3C960,235,1056,213,1152,197.3C1248,181,1344,171,1392,165.3L1440,160L1440,320L1392,320C1344,320,1248,320,1152,320C1056,320,960,320,864,320C768,320,672,320,576,320C480,320,384,320,288,320C192,320,96,320,48,320L0,320Z" fill="url(#gradient)" />
</svg>